<svg xmlns="http://www.w3.org/2000/svg" xmlns:xlink="http://www.w3.org/1999/xlink" width="500" zoomAndPan="magnify" viewBox="0 0 375 374.999991" height="500" preserveAspectRatio="xMidYMid meet" version="1.0"><defs><g/><clipPath id="a2c41781f1"><path d="M 141.9375 73.804688 L 233.4375 73.804688 L 233.4375 223.804688 L 141.9375 223.804688 Z M 141.9375 73.804688 " clip-rule="nonzero"/></clipPath></defs><rect x="-37.5" width="450" fill="#ffffff" y="-37.499999" height="449.999989" fill-opacity="1"/><rect x="-37.5" width="450" fill="#000000" y="-37.499999" height="449.999989" fill-opacity="1"/><g clip-path="url(#a2c41781f1)"><path fill="#ffffff" d="M 141.9375 112.226562 L 208.363281 73.875 L 208.363281 82.222656 L 148.648438 116.699219 L 148.648438 203.394531 L 141.9375 207.273438 Z M 166.632812 128.691406 L 233.058594 90.339844 L 233.058594 115.316406 L 188.265625 141.175781 L 188.265625 151.238281 L 233.058594 125.375 L 233.058594 150.351562 L 188.265625 176.210938 L 188.265625 186.273438 L 233.058594 160.410156 L 233.058594 185.382812 L 166.632812 223.734375 Z M 166.632812 128.691406 " fill-opacity="1" fill-rule="evenodd"/></g><g fill="#ffffff" fill-opacity="1"><g transform="translate(62.379492, 258.574963)"><g><path d="M 1.636719 0 L 6.734375 0 L 6.734375 -6.882812 L 8.964844 -9.265625 L 13.882812 0 L 20.019531 0 L 12.421875 -13.046875 L 19.75 -21.210938 L 13.554688 -21.210938 L 6.792969 -13.109375 L 6.734375 -13.136719 L 6.734375 -21.210938 L 1.636719 -21.210938 Z M 1.636719 0 "/></g></g></g><g fill="#ffffff" fill-opacity="1"><g transform="translate(84.959837, 258.574963)"><g><path d="M 1.636719 0 L 6.734375 0 L 6.734375 -8.9375 L 15.402344 -8.9375 L 15.402344 0 L 20.496094 0 L 20.496094 -21.210938 L 15.402344 -21.210938 L 15.402344 -13.019531 L 6.734375 -13.019531 L 6.734375 -21.210938 L 1.636719 -21.210938 Z M 1.636719 0 "/></g></g></g><g fill="#ffffff" fill-opacity="1"><g transform="translate(109.506265, 258.574963)"><g><path d="M 12.632812 0.746094 C 19.75 0.746094 24.398438 -3.753906 24.398438 -10.605469 C 24.398438 -17.457031 19.75 -21.957031 12.632812 -21.957031 C 5.539062 -21.957031 0.894531 -17.457031 0.894531 -10.605469 C 0.894531 -3.753906 5.539062 0.746094 12.632812 0.746094 Z M 12.632812 -3.632812 C 8.609375 -3.632812 5.988281 -6.40625 5.988281 -10.605469 C 5.988281 -14.835938 8.609375 -17.605469 12.632812 -17.605469 C 16.683594 -17.605469 19.304688 -14.835938 19.304688 -10.605469 C 19.304688 -6.40625 16.683594 -3.632812 12.632812 -3.632812 Z M 12.632812 -3.632812 "/></g></g></g><g fill="#ffffff" fill-opacity="1"><g transform="translate(137.210332, 258.574963)"><g><path d="M 0.148438 0 L 5.480469 0 L 6.851562 -4.171875 L 15.015625 -4.171875 L 16.382812 0 L 21.71875 0 L 14.0625 -21.210938 L 7.835938 -21.210938 Z M 7.773438 -7.773438 L 10.902344 -17.1875 L 10.960938 -17.1875 L 14.089844 -7.773438 Z M 7.773438 -7.773438 "/></g></g></g><g fill="#ffffff" fill-opacity="1"><g transform="translate(161.488651, 258.574963)"><g/></g></g><g fill="#ffffff" fill-opacity="1"><g transform="translate(170.485138, 258.574963)"><g><path d="M 1.636719 0 L 6.433594 0 L 6.433594 -15.074219 L 6.496094 -15.074219 L 15.132812 0 L 21.121094 0 L 21.121094 -21.210938 L 16.296875 -21.210938 L 16.296875 -6.105469 L 16.234375 -6.105469 L 7.597656 -21.210938 L 1.636719 -21.210938 Z M 1.636719 0 "/></g></g></g><g fill="#ffffff" fill-opacity="1"><g transform="translate(195.657137, 258.574963)"><g><path d="M 11.351562 0.683594 C 15.074219 0.683594 18.140625 -1.074219 19.511719 -4.023438 L 19.542969 -4.023438 L 20.046875 0 L 23.773438 0 L 23.773438 -12.035156 L 9.683594 -12.035156 L 9.683594 -8.878906 L 18.796875 -8.878906 C 18.679688 -5.75 16.085938 -3.484375 12.71875 -3.484375 C 8.757812 -3.484375 5.988281 -6.40625 5.988281 -10.605469 C 5.988281 -14.746094 8.460938 -17.605469 12.003906 -17.605469 C 14.300781 -17.605469 16.296875 -16.144531 16.980469 -14.03125 L 21.65625 -15.015625 C 20.585938 -19.125 16.742188 -21.957031 12.066406 -21.957031 C 5.453125 -21.957031 0.894531 -17.335938 0.894531 -10.605469 C 0.894531 -3.933594 5.183594 0.683594 11.351562 0.683594 Z M 11.351562 0.683594 "/></g></g></g><g fill="#ffffff" fill-opacity="1"><g transform="translate(223.033532, 258.574963)"><g><path d="M 10.960938 0.746094 C 16.859375 0.746094 20.496094 -2.679688 20.496094 -8.164062 L 20.496094 -21.210938 L 15.402344 -21.210938 L 15.402344 -8.3125 C 15.402344 -5.480469 13.703125 -3.632812 10.960938 -3.632812 C 8.191406 -3.632812 6.523438 -5.601562 6.523438 -8.3125 L 6.523438 -21.210938 L 1.429688 -21.210938 L 1.429688 -8.164062 C 1.429688 -2.679688 5.035156 0.746094 10.960938 0.746094 Z M 10.960938 0.746094 "/></g></g></g><g fill="#ffffff" fill-opacity="1"><g transform="translate(247.371439, 258.574963)"><g><path d="M 7.597656 0 L 12.691406 0 L 12.691406 -7.476562 L 19.988281 -21.210938 L 14.539062 -21.210938 L 10.1875 -11.945312 L 10.128906 -11.945312 L 5.511719 -21.210938 L 0.148438 -21.210938 L 7.597656 -7.476562 Z M 7.597656 0 "/></g></g></g><g fill="#ffffff" fill-opacity="1"><g transform="translate(269.921998, 258.574963)"><g><path d="M 1.636719 0 L 16.859375 0 L 16.859375 -4.082031 L 6.554688 -4.082031 L 6.554688 -9.054688 L 15.371094 -9.054688 L 15.371094 -12.660156 L 6.554688 -12.660156 L 6.554688 -17.160156 L 16.5625 -17.160156 L 16.5625 -21.210938 L 1.636719 -21.210938 Z M 1.636719 0 "/></g></g></g><g fill="#ffffff" fill-opacity="1"><g transform="translate(289.851104, 258.574963)"><g><path d="M 1.636719 0 L 6.433594 0 L 6.433594 -15.074219 L 6.496094 -15.074219 L 15.132812 0 L 21.121094 0 L 21.121094 -21.210938 L 16.296875 -21.210938 L 16.296875 -6.105469 L 16.234375 -6.105469 L 7.597656 -21.210938 L 1.636719 -21.210938 Z M 1.636719 0 "/></g></g></g><g fill="#ffffff" fill-opacity="1"><g transform="translate(156.915129, 312.195887)"><g><path d="M 0.960938 0 L 6.144531 0 C 8.589844 0 10 -1.152344 10 -3.152344 C 10 -4.574219 9.230469 -5.535156 7.871094 -5.824219 L 7.871094 -5.839844 C 8.992188 -6.144531 9.648438 -7.007812 9.648438 -8.238281 C 9.648438 -10.175781 8.367188 -11.277344 6.128906 -11.277344 L 0.960938 -11.277344 Z M 2.289062 -6.398438 L 2.289062 -10.09375 L 5.96875 -10.09375 C 7.472656 -10.09375 8.335938 -9.40625 8.335938 -8.238281 C 8.335938 -7.070312 7.472656 -6.398438 5.96875 -6.398438 Z M 2.289062 -1.183594 L 2.289062 -5.214844 L 5.96875 -5.214844 C 7.679688 -5.214844 8.6875 -4.480469 8.6875 -3.214844 C 8.6875 -1.917969 7.679688 -1.183594 5.96875 -1.183594 Z M 2.289062 -1.183594 "/></g></g></g><g fill="#ffffff" fill-opacity="1"><g transform="translate(168.688604, 312.195887)"><g><path d="M 0.960938 0 L 8.0625 0 L 8.0625 -1.183594 L 2.289062 -1.183594 L 2.289062 -11.277344 L 0.960938 -11.277344 Z M 0.960938 0 "/></g></g></g><g fill="#ffffff" fill-opacity="1"><g transform="translate(178.206631, 312.195887)"><g><path d="M 6.621094 0.398438 C 10.300781 0.398438 12.703125 -2 12.703125 -5.632812 C 12.703125 -9.277344 10.300781 -11.679688 6.621094 -11.679688 C 2.960938 -11.679688 0.558594 -9.277344 0.558594 -5.632812 C 0.558594 -2 2.960938 0.398438 6.621094 0.398438 Z M 6.621094 -0.785156 C 3.757812 -0.785156 1.886719 -2.71875 1.886719 -5.632812 C 1.886719 -8.558594 3.757812 -10.496094 6.621094 -10.496094 C 9.488281 -10.496094 11.359375 -8.558594 11.359375 -5.632812 C 11.359375 -2.71875 9.488281 -0.785156 6.621094 -0.785156 Z M 6.621094 -0.785156 "/></g></g></g><g fill="#ffffff" fill-opacity="1"><g transform="translate(192.763446, 312.195887)"><g><path d="M 6.429688 0.398438 C 8.445312 0.398438 10.109375 -0.574219 11.085938 -2.175781 L 11.101562 -2.175781 L 11.230469 0 L 12.351562 0 L 12.351562 -6.222656 L 4.71875 -6.222656 L 4.71875 -5.039062 L 10.992188 -5.039062 C 10.992188 -2.609375 9.023438 -0.785156 6.542969 -0.785156 C 3.839844 -0.785156 1.886719 -2.832031 1.886719 -5.632812 C 1.886719 -8.480469 3.742188 -10.496094 6.335938 -10.496094 C 8.015625 -10.496094 9.488281 -9.40625 10.015625 -7.871094 L 11.246094 -8.269531 C 10.574219 -10.253906 8.589844 -11.679688 6.351562 -11.679688 C 2.992188 -11.679688 0.558594 -9.132812 0.558594 -5.632812 C 0.558594 -2.144531 3.023438 0.398438 6.429688 0.398438 Z M 6.429688 0.398438 "/></g></g></g><g fill="#ffffff" fill-opacity="1"><g transform="translate(207.048327, 312.195887)"><g><path d="M 5.199219 0.398438 C 7.742188 0.398438 9.390625 -1.105469 9.390625 -3.167969 C 9.390625 -4.703125 8.300781 -5.726562 6.128906 -6.207031 L 4.304688 -6.621094 C 2.878906 -6.941406 2.273438 -7.488281 2.273438 -8.445312 C 2.273438 -9.613281 3.246094 -10.496094 4.785156 -10.496094 C 6.222656 -10.496094 7.292969 -9.550781 7.453125 -8.175781 L 8.71875 -8.496094 C 8.398438 -10.382812 6.832031 -11.679688 4.765625 -11.679688 C 2.464844 -11.679688 0.945312 -10.253906 0.945312 -8.222656 C 0.945312 -6.71875 1.886719 -5.808594 3.886719 -5.34375 L 5.710938 -4.925781 C 7.359375 -4.542969 8.0625 -3.953125 8.0625 -2.960938 C 8.0625 -1.726562 6.976562 -0.785156 5.199219 -0.785156 C 3.230469 -0.785156 1.742188 -2.03125 1.632812 -3.792969 L 0.320312 -3.550781 C 0.574219 -1.230469 2.589844 0.398438 5.199219 0.398438 Z M 5.199219 0.398438 "/></g></g></g></svg>